<svg xmlns="http://www.w3.org/2000/svg" viewBox="0 0 55.241638 55.87883" aria-hidden="true">
  <g transform="translate(-624.55798,-203.83461)">
    <path
      fill="currentColor"
      d="m 650.35663,259.68651 c -2.50373,-0.24445 -4.38142,-0.63533 -6.52029,-1.35734 -5.34519,-1.80433 -10.0394,-5.23555 -13.54676,-9.90197 -2.31717,-3.08292 -4.15816,-6.9671 -5.02304,-10.59781 -0.60017,-2.51945 -0.70761,-3.48929 -0.70857,-6.39572 -9.3e-4,-2.79625 0.11377,-3.93493 0.60582,-6.01305 1.06395,-4.49384 3.62044,-9.17167 6.90767,-12.6396 0.6952,-0.73341 0.73797,-0.8082 0.73797,-1.29057 0,-0.28161 0.0734,-0.65402 0.16316,-0.82757 0.31495,-0.60902 2.98359,-2.42233 5.31203,-3.60944 3.02693,-1.54322 6.09539,-2.51148 9.57944,-3.02278 1.6069,-0.23583 5.70703,-0.26562 7.24835,-0.0527 4.93628,0.682 9.37721,2.4131 13.22874,5.15664 5.58824,3.98061 9.10428,8.93429 10.65598,15.01305 0.53572,2.09861 0.72929,3.57127 0.79244,6.02873 0.14438,5.61774 -1.26388,10.85861 -4.188,15.5858 -0.92858,1.50114 -1.12112,1.68809 -1.73876,1.68809 -0.44855,0 -0.55403,-0.0487 -0.88361,-0.40838 -0.57211,-0.62428 -0.52391,-0.81204 0.67008,-2.61044 4.54753,-6.84959 5.54138,-13.84865 2.9789,-20.97877 -0.38678,-1.07624 -1.41715,-3.18076 -2.07643,-4.24112 -4.17726,-6.71849 -11.63221,-11.51452 -19.494,-12.54117 -1.49643,-0.19542 -4.68545,-0.22554 -6.01306,-0.0567 -4.76785,0.60599 -8.97814,2.41662 -12.83685,5.52048 -1.10701,0.89046 -1.29818,0.97844 -1.98389,0.91304 -0.43254,-0.0412 -0.46731,-0.019 -1.13717,0.7295 -2.73811,3.05937 -4.39582,6.32516 -5.58132,10.99556 -0.70035,2.75905 -0.99508,6.5182 -0.7199,9.18182 0.50437,4.88209 2.39725,9.49952 5.44303,13.27762 1.10637,1.37239 3.0525,3.26155 4.40791,4.27889 6.25826,4.69735 14.04148,6.20378 21.7071,4.20135 1.71305,-0.44748 3.11521,-0.98509 5.17051,-1.98249 1.35826,-0.65911 1.89678,-0.86734 2.24319,-0.86734 1.26151,0 2.02626,1.5645 1.27826,2.61497 -0.13603,0.19105 -0.64909,0.53349 -1.29131,0.86189 -3.06409,1.56682 -6.47106,2.66102 -9.77868,3.14057 -1.09548,0.15882 -4.72909,0.29296 -5.60894,0.20705 z m -4.29327,-18.69452 c -1.06476,-0.5306 -2.02661,-1.84538 -2.51356,-3.43593 -0.4222,-1.37904 -0.50409,-2.48207 -0.51129,-6.88768 -0.006,-3.6777 0.0175,-4.30577 0.18631,-4.97444 0.69895,-2.76884 2.29199,-3.86232 4.95681,-3.40245 1.25178,0.21603 3.73513,1.1186 8.06048,2.92957 2.1463,0.89864 3.66111,1.99296 4.47988,3.23639 1.58362,2.40493 1.36954,5.05359 -0.56757,7.02221 -1.24123,1.2614 -2.98676,2.23425 -6.08062,3.38893 -0.84184,0.31419 -2.26857,0.90456 -3.17052,1.31193 -1.99952,0.90308 -2.61583,1.09271 -3.55154,1.09271 -0.55856,0 -0.85298,-0.0642 -1.28838,-0.28124 z m 2.68167,-1.84715 c 0.31622,-0.14724 0.78361,-0.41123 1.03863,-0.58667 0.255,-0.17544 1.43581,-0.83962 2.62403,-1.47596 1.18823,-0.63633 2.51565,-1.38678 2.94983,-1.66765 0.98679,-0.63835 2.17831,-1.77167 2.69106,-2.55961 0.33261,-0.51113 0.39028,-0.69148 0.38453,-1.20261 -0.0168,-1.48828 -0.81712,-2.20883 -4.64623,-4.18277 -3.78465,-1.95103 -5.41302,-2.65282 -6.6651,-2.87246 -0.48127,-0.0845 -1.10925,0.15601 -1.34177,0.51372 -0.2425,0.37308 -0.59102,2.23365 -0.72146,3.85151 -0.14715,1.82495 -0.14604,5.66159 0.002,6.84734 0.2092,1.67606 0.78131,2.91777 1.56429,3.39521 0.49702,0.30308 1.39489,0.27764 2.12023,-0.0601 z"
    />
  </g>
</svg>
